<?xml version="1.0" encoding="utf-8"?>
<!-- Generated by IcoMoon.io -->
<!DOCTYPE svg PUBLIC "-//W3C//DTD SVG 1.1//EN" "http://www.w3.org/Graphics/SVG/1.1/DTD/svg11.dtd">
<svg version="1.1" xmlns="http://www.w3.org/2000/svg" xmlns:xlink="http://www.w3.org/1999/xlink" width="18" height="18" viewBox="0 0 18 18">
<path fill="#444444" d="M16.714 15.107v-7.714q-0.321 0.362-0.693 0.663-2.692 2.069-4.279 3.395-0.512 0.432-0.834 0.673t-0.869 0.487-1.030 0.246h-0.020q-0.482 0-1.030-0.246t-0.869-0.487-0.834-0.673q-1.587-1.326-4.279-3.395-0.372-0.301-0.693-0.663v7.714q0 0.131 0.095 0.226t0.226 0.095h14.786q0.131 0 0.226-0.095t0.095-0.226zM16.714 4.55v-0.246t-0.005-0.131-0.030-0.126-0.055-0.090-0.090-0.075-0.141-0.025h-14.786q-0.131 0-0.226 0.095t-0.095 0.226q0 1.688 1.477 2.853 1.939 1.527 4.028 3.184 0.060 0.050 0.352 0.296t0.462 0.377 0.447 0.316 0.507 0.276 0.432 0.090h0.020q0.201 0 0.432-0.090t0.507-0.276 0.447-0.316 0.462-0.377 0.352-0.296q2.089-1.657 4.028-3.184 0.542-0.432 1.009-1.16t0.467-1.321zM18 4.179v10.929q0 0.663-0.472 1.135t-1.135 0.472h-14.786q-0.663 0-1.135-0.472t-0.472-1.135v-10.929q0-0.663 0.472-1.135t1.135-0.472h14.786q0.663 0 1.135 0.472t0.472 1.135z"></path>
</svg>
