<?xml version="1.0" encoding="utf-8"?>
<!-- Generated by IcoMoon.io -->
<!DOCTYPE svg PUBLIC "-//W3C//DTD SVG 1.1//EN" "http://www.w3.org/Graphics/SVG/1.1/DTD/svg11.dtd">
<svg version="1.1" xmlns="http://www.w3.org/2000/svg" xmlns:xlink="http://www.w3.org/1999/xlink" width="17" height="18" viewBox="0 0 17 18">
<path fill="#444444" d="M16.272 4.098q-0.673 0.984-1.627 1.677 0.010 0.141 0.010 0.422 0 1.306-0.382 2.607t-1.16 2.496-1.853 2.114-2.592 1.467-3.244 0.547q-2.722 0-4.982-1.456 0.352 0.040 0.783 0.040 2.26 0 4.028-1.386-1.055-0.020-1.888-0.648t-1.145-1.602q0.331 0.050 0.613 0.050 0.432 0 0.854-0.11-1.125-0.231-1.863-1.12t-0.738-2.064v-0.040q0.683 0.382 1.467 0.412-0.663-0.442-1.055-1.155t-0.392-1.547q0-0.884 0.442-1.637 1.215 1.497 2.958 2.396t3.732 0.999q-0.080-0.382-0.080-0.743 0-1.346 0.949-2.295t2.295-0.949q1.406 0 2.371 1.025 1.095-0.211 2.059-0.783-0.372 1.155-1.426 1.788 0.934-0.1 1.868-0.502z"></path>
</svg>
